<svg width="64" height="64" viewBox="0 0 64 64" fill="none" xmlns="http://www.w3.org/2000/svg">
  <rect width="64" height="64" rx="16" fill="#051C14"/>
  <defs>
    <radialGradient id="markGlow" cx="0" cy="0" r="1" gradientUnits="userSpaceOnUse" gradientTransform="translate(32 32) scale(22)">
      <stop offset="0" stop-color="#2ECC71"/>
      <stop offset="0.6" stop-color="#6C3B99"/>
      <stop offset="1" stop-color="#1B4233"/>
    </radialGradient>
  </defs>
  <path d="M32 14C25 20 22 26 22 32C22 38 25.5 42 31 42C36 42 41 38 41 31.5C41 26 37.5 21.5 34.5 19C32.5 17.5 31.5 15.5 32 14Z" fill="url(#markGlow)"/>
  <path d="M35 18C33 22.5 33 25.5 35 30C36.3 32.8 38.5 36 38.5 39.5C38.5 43.5 36 46 32 46C28 46 25.5 43 25.5 37.5C25.5 30.5 30.5 23.5 35 18Z" fill="rgba(255,255,255,0.16)"/>
  <circle cx="26" cy="39" r="3" fill="#2ECC71"/>
  <circle cx="22" cy="33" r="2.5" fill="#6C3B99" opacity="0.9"/>
</svg>
